<svg width="66" height="70" viewBox="0 0 66 70" fill="none" xmlns="http://www.w3.org/2000/svg">
<rect x="9" y="49.0194" width="33.6459" height="15.0091" rx="1" transform="rotate(-3.53204 9 49.0194)" fill="#602D0D"/>
<path d="M44.9331 31.9071L49.9018 30.6649L46.0074 58.4123C45.5327 60.5916 43.2369 64.3937 38.3876 65.5128C35.151 66.2597 31.1616 67.0079 27.8538 67.5696C26.2006 67.8503 24.7203 68.084 23.5924 68.2473C22.4422 68.4139 21.7049 68.5 21.5 68.5H21.4608L21.422 68.5061C18.4201 68.9801 12.9985 67.9425 9.94024 62.263C8.18739 59.0077 6.56004 56.1285 4.99723 53.378C4.82914 53.0822 4.66182 52.7878 4.49518 52.4947C3.23242 50.2736 2.00877 48.1212 0.788538 45.8993L7.22638 45.0409L15.5572 60.2324C16.5376 62.181 19.1771 63.4036 24.0415 62.9983C24.8071 62.9345 25.5949 62.8786 26.3913 62.8221C28.6805 62.6597 31.0408 62.4922 33.15 62.1173C35.978 61.6145 38.5333 60.7136 39.9069 58.7906L39.9714 58.7002L39.9916 58.591L44.9331 31.9071Z" fill="#FF8B42" stroke="#FF8B42"/>
<path d="M53 39.0095V35.0095C69.5 34.5095 68.5 54.0095 50.5 55.0095L51 50.5095C66.5 48.5095 59 38.0095 53 39.0095Z" fill="#FF8B42" stroke="#FF8B42"/>
<path d="M29.1127 1C28.8744 1.35744 28.6483 1.70854 28.434 2.05361C24.4433 10.045 42.9897 21.8378 29.1127 40.5C33.026 20.9333 18.7537 17.638 28.434 2.05361C28.6131 1.69484 28.8377 1.34373 29.1127 1Z" fill="#FF8B42"/>
<path d="M29.1127 1C18.1127 17.5 33.1127 20.5 29.1127 40.5C43.6127 21 22.7127 9 29.1127 1Z" stroke="#FF8B42"/>
<path d="M15.1935 12.4538C15.1237 12.7154 15.0593 12.9714 15.0003 13.222C14.1526 18.8948 25.9341 24.0207 21.5237 37.8737C20.4751 24.7619 12.3349 24.5369 15.0003 13.222C15.0384 12.9673 15.1019 12.7115 15.1935 12.4538Z" fill="#FF8B42"/>
<path d="M15.1935 12.4538C11.971 24.5332 20.4519 24.4716 21.5237 37.8737C26.1321 23.3988 13.0622 18.4521 15.1935 12.4538Z" stroke="#FF8B42"/>
</svg>
