<svg width="96" height="92" viewBox="0 0 96 92" fill="none" xmlns="http://www.w3.org/2000/svg">
<path d="M6.37207 79.562L8.36426 79.0859V81.6787L6.37207 81.2026V82.6382L7.30957 82.8506V86H0.74707V82.8213L1.68457 82.6382V78.1265L0.74707 77.9434V74.75H9.80713V78.5H8.57666C8.45947 78.3926 8.3252 78.2827 8.17383 78.1704C8.02734 78.0581 7.86133 77.958 7.67578 77.8701C7.49512 77.7773 7.29492 77.7041 7.0752 77.6504C6.86035 77.5918 6.62598 77.5625 6.37207 77.5625V79.562ZM22.2363 86H17.8564C17.7197 85.7461 17.5781 85.4775 17.4316 85.1943C17.2852 84.9062 17.1436 84.606 17.0068 84.2935C16.8701 83.981 16.7407 83.6587 16.6187 83.3267C16.5015 82.9946 16.4014 82.6528 16.3184 82.3013H16.0767V86H10.7886V83.0776L11.6675 82.9092V78.7417L10.7886 78.5732V75.6875H16.7871C17.583 75.6875 18.269 75.7217 18.8452 75.79C19.4263 75.8584 19.917 75.9585 20.3174 76.0903C20.7227 76.2222 21.0498 76.3833 21.2988 76.5737C21.5479 76.7593 21.7407 76.9717 21.8774 77.2109C22.019 77.4453 22.1143 77.7041 22.1631 77.9873C22.2119 78.2705 22.2363 78.5708 22.2363 78.8882C22.2363 79.2104 22.2046 79.5034 22.1411 79.7671C22.0825 80.0308 21.9751 80.2725 21.8188 80.4922C21.6626 80.7119 21.4478 80.9146 21.1743 81.1001C20.9058 81.2808 20.5615 81.4517 20.1416 81.6128C20.2295 81.7886 20.3589 81.9985 20.5298 82.2427C20.7056 82.4819 20.896 82.7285 21.1011 82.9824C21.3062 83.2314 21.5088 83.4731 21.709 83.7075C21.9141 83.9419 22.0898 84.1421 22.2363 84.3081V86ZM16.0767 80.3164C16.3452 80.3164 16.5869 80.3042 16.8018 80.2798C17.0215 80.2505 17.207 80.1919 17.3584 80.104C17.5146 80.0112 17.6343 79.877 17.7173 79.7012C17.8003 79.5254 17.8418 79.2886 17.8418 78.9907C17.8418 78.6978 17.8003 78.4634 17.7173 78.2876C17.6343 78.1118 17.5146 77.9775 17.3584 77.8848C17.207 77.7871 17.0215 77.7236 16.8018 77.6943C16.5869 77.665 16.3452 77.6504 16.0767 77.6504V80.3164ZM28.7549 80.2212L30.7837 79.7891V81.8765L28.7549 81.437V83.0557C29.0479 83.0557 29.3311 83.0361 29.6045 82.9971C29.8779 82.9531 30.1318 82.8945 30.3662 82.8213C30.6006 82.748 30.8154 82.6626 31.0107 82.5649C31.2061 82.4673 31.3745 82.3623 31.5161 82.25H32.5195V86H23.4668V83.0776L24.3457 82.9092V78.7563L23.4668 78.5879V75.6875H32.5195V79.4375H31.5161C31.3745 79.3301 31.2061 79.2275 31.0107 79.1299C30.8154 79.0322 30.6006 78.9468 30.3662 78.8735C30.1318 78.8003 29.8779 78.7417 29.6045 78.6978C29.3311 78.6538 29.0479 78.6318 28.7549 78.6318V80.2212ZM42.6709 82.7554C42.6709 83.2095 42.605 83.6123 42.4731 83.9639C42.3462 84.3105 42.1704 84.6133 41.9458 84.8721C41.7261 85.126 41.4624 85.3384 41.1548 85.5093C40.8521 85.6802 40.5249 85.8193 40.1733 85.9268C39.8218 86.0293 39.4531 86.0879 39.0674 86.1025C38.6865 86.1221 38.3057 86.1318 37.9248 86.1318C37.3975 86.1318 36.9214 86.1196 36.4966 86.0952C36.0718 86.0708 35.6909 86.0171 35.354 85.9341C35.022 85.8511 34.7266 85.7607 34.4678 85.6631C34.2139 85.5605 33.9893 85.4604 33.7939 85.3628V82.8213H35.8667C36.0718 83.1436 36.3062 83.3804 36.5698 83.5317C36.8335 83.6831 37.1045 83.7588 37.3828 83.7588C37.4658 83.7588 37.5586 83.7515 37.6611 83.7368C37.7637 83.7222 37.8589 83.6758 37.9468 83.5977C38.0347 83.5195 38.1079 83.3999 38.1665 83.2388C38.23 83.0728 38.2617 82.8408 38.2617 82.543C37.8662 82.5088 37.4731 82.46 37.0825 82.3965C36.6968 82.3281 36.3257 82.2378 35.9692 82.1255C35.6177 82.0132 35.2905 81.8716 34.9878 81.7007C34.6851 81.5249 34.4214 81.3149 34.1968 81.0708C33.9771 80.8218 33.8037 80.5312 33.6768 80.1992C33.5498 79.8623 33.4863 79.4766 33.4863 79.042C33.4863 78.5439 33.5498 78.1094 33.6768 77.7383C33.8037 77.3623 33.9771 77.04 34.1968 76.7715C34.4165 76.5029 34.6753 76.2808 34.9731 76.105C35.2759 75.9292 35.6006 75.79 35.9473 75.6875C36.2939 75.585 36.6553 75.5142 37.0312 75.4751C37.4072 75.4312 37.7832 75.4092 38.1592 75.4092C38.6914 75.4092 39.1675 75.436 39.5874 75.4897C40.0122 75.5435 40.3906 75.6118 40.7227 75.6948C41.0596 75.7778 41.355 75.8706 41.6089 75.9731C41.8677 76.0708 42.0972 76.166 42.2974 76.2588V78.8223H40.0781C39.8926 78.4707 39.6802 78.2144 39.4409 78.0532C39.2017 77.8921 38.9575 77.8115 38.7085 77.8115C38.6255 77.8115 38.5303 77.8262 38.4229 77.8555C38.3154 77.8799 38.2153 77.9385 38.1226 78.0312C38.0298 78.124 37.9517 78.2607 37.8882 78.4414C37.8247 78.6221 37.793 78.8662 37.793 79.1738C38.5986 79.2031 39.3042 79.2886 39.9097 79.4302C40.52 79.5718 41.0303 79.7842 41.4404 80.0674C41.8506 80.3457 42.1582 80.707 42.3633 81.1514C42.5684 81.5908 42.6709 82.1255 42.6709 82.7554ZM43.8574 75.6875H50.0244V78.5879L49.1455 78.7563V79.9648H52.6685V78.7563L51.7896 78.5879V75.6509H57.9565V78.5879L57.0776 78.7563V82.9092L57.9565 83.0776V86H51.7896V83.0776L52.6685 82.9092V81.686H49.1455V82.9092L50.0244 83.0776V86H43.8574V83.0776L44.7363 82.9092V78.7563L43.8574 78.5879V75.6875ZM82.0166 78.7417C82.0117 78.8882 82.0093 79.0322 82.0093 79.1738C82.0093 79.3105 82.0093 79.4424 82.0093 79.5693V80.7046C82.0093 81.6812 81.875 82.5186 81.6064 83.2168C81.3379 83.9102 80.9741 84.479 80.5151 84.9233C80.0562 85.3677 79.5166 85.6802 78.8965 85.8608C78.2812 86.0415 77.627 86.1318 76.9336 86.1318C76.1328 86.1318 75.3833 86.0415 74.6851 85.8608C73.9917 85.6802 73.3862 85.3677 72.8687 84.9233C72.356 84.4741 71.9507 83.9028 71.6528 83.2095C71.3599 82.5161 71.2134 81.6812 71.2134 80.7046V78.7417L70.3345 78.5732V75.6875H76.0547V78.5732L75.1758 78.7417V79.6133C75.1758 79.7305 75.1758 79.8501 75.1758 79.9722C75.1758 80.0894 75.1758 80.1992 75.1758 80.3018C75.1807 80.4043 75.1831 80.4946 75.1831 80.5728C75.1831 80.646 75.1831 80.6948 75.1831 80.7192C75.1831 80.8315 75.1855 80.9634 75.1904 81.1147C75.1953 81.2612 75.2148 81.415 75.249 81.5762C75.2832 81.7324 75.3345 81.8887 75.4028 82.0449C75.4761 82.1963 75.5762 82.333 75.7031 82.4551C75.835 82.5771 75.9985 82.6772 76.1938 82.7554C76.394 82.8286 76.6406 82.8652 76.9336 82.8652C77.2266 82.8652 77.4731 82.8286 77.6733 82.7554C77.8784 82.6772 78.0444 82.5771 78.1714 82.4551C78.3032 82.3281 78.4058 82.1865 78.479 82.0303C78.5522 81.874 78.6035 81.7178 78.6328 81.5615C78.667 81.4004 78.6865 81.2466 78.6914 81.1001C78.7012 80.9487 78.7061 80.8169 78.7061 80.7046C78.7061 80.6704 78.7061 80.6167 78.7061 80.5435C78.7061 80.4653 78.7036 80.3774 78.6987 80.2798C78.6987 80.1772 78.6987 80.0698 78.6987 79.9575C78.6987 79.8403 78.6987 79.7256 78.6987 79.6133V78.7417L77.8198 78.5732V75.6875H82.9028V78.5732L82.0166 78.7417ZM84.0454 75.6875H90.0439C90.8252 75.6875 91.5015 75.7217 92.0728 75.79C92.6489 75.8584 93.1372 75.9561 93.5376 76.083C93.9429 76.21 94.2725 76.3662 94.5264 76.5518C94.7852 76.7373 94.9854 76.9473 95.127 77.1816C95.2734 77.4111 95.3711 77.665 95.4199 77.9434C95.4736 78.2168 95.5005 78.5098 95.5005 78.8223C95.5005 79.1445 95.4688 79.4473 95.4053 79.7305C95.3467 80.0137 95.2344 80.2749 95.0684 80.5142C94.9023 80.7485 94.6729 80.9609 94.3799 81.1514C94.0918 81.3369 93.7183 81.4956 93.2593 81.6274C92.8052 81.7544 92.2559 81.8521 91.6113 81.9204C90.9668 81.9888 90.2075 82.0229 89.3335 82.0229V82.9092L90.2124 83.0776V86H84.0454V83.0776L84.9243 82.9092V78.7417L84.0454 78.5732V75.6875ZM89.3335 80.1699C89.6021 80.1699 89.8438 80.1553 90.0586 80.126C90.2783 80.0967 90.4639 80.0332 90.6152 79.9355C90.7715 79.8379 90.8911 79.6963 90.9741 79.5107C91.0571 79.3252 91.0986 79.0737 91.0986 78.7563C91.0986 78.4634 91.0571 78.2314 90.9741 78.0605C90.8911 77.8896 90.7715 77.7578 90.6152 77.665C90.4639 77.5723 90.2783 77.5137 90.0586 77.4893C89.8438 77.46 89.6021 77.4453 89.3335 77.4453V80.1699Z" fill="#602D0D"/>
<path d="M63.5303 80.7046C63.5303 81.481 63.728 82.0474 64.1235 82.4038C64.519 82.7554 65.0806 82.9312 65.8081 82.9312C66.2378 82.9312 66.7407 82.8774 67.3169 82.77C67.8979 82.6626 68.5522 82.499 69.2798 82.2793V85.4653C67.8149 85.9097 66.4062 86.1318 65.0537 86.1318C64.2139 86.1318 63.4326 86.0342 62.71 85.8389C61.9873 85.6387 61.3599 85.3115 60.8276 84.8574C60.2954 84.4033 59.8755 83.832 59.5679 83.1436C59.2651 82.4502 59.1138 81.6372 59.1138 80.7046C59.1138 79.7817 59.2529 78.9883 59.5312 78.3242C59.8145 77.6553 60.2124 77.106 60.7251 76.6763C61.2427 76.2417 61.8628 75.9219 62.5854 75.7168C63.3081 75.5117 64.1138 75.4092 65.0024 75.4092C65.5444 75.4092 66.0327 75.436 66.4673 75.4897C66.9067 75.5435 67.2998 75.6118 67.6465 75.6948C67.998 75.7778 68.3057 75.8706 68.5693 75.9731C68.8379 76.0708 69.0747 76.166 69.2798 76.2588V79.4448H67.207C66.9727 79.1226 66.7139 78.8857 66.4307 78.7344C66.1475 78.5781 65.8521 78.5 65.5444 78.5C65.2905 78.5 65.0415 78.5488 64.7974 78.6465C64.5581 78.7441 64.3433 78.8882 64.1528 79.0786C63.9673 79.2642 63.8159 79.4937 63.6987 79.7671C63.5864 80.0405 63.5303 80.353 63.5303 80.7046Z" fill="#FF8B42"/>
<rect x="28" y="49.0194" width="33.6459" height="15.0091" rx="1" transform="rotate(-3.53204 28 49.0194)" fill="#602D0D"/>
<path d="M63.9331 31.9071L68.9018 30.6649L65.0074 58.4123C64.5327 60.5916 62.2369 64.3937 57.3876 65.5128C54.151 66.2597 50.1616 67.0079 46.8538 67.5696C45.2006 67.8503 43.7203 68.084 42.5924 68.2473C41.4422 68.4139 40.7049 68.5 40.5 68.5H40.4608L40.422 68.5061C37.4201 68.9801 31.9985 67.9425 28.9402 62.263C27.1874 59.0077 25.56 56.1285 23.9972 53.378C23.8291 53.0822 23.6618 52.7878 23.4952 52.4947C22.2324 50.2736 21.0088 48.1212 19.7885 45.8993L26.2264 45.0409L34.5572 60.2324C35.5376 62.181 38.1771 63.4036 43.0415 62.9983C43.8071 62.9345 44.5949 62.8786 45.3913 62.8221C47.6805 62.6597 50.0408 62.4922 52.15 62.1173C54.978 61.6145 57.5333 60.7136 58.9069 58.7906L58.9714 58.7002L58.9916 58.591L63.9331 31.9071Z" fill="#FF8B42" stroke="#FF8B42"/>
<path d="M72 39.0095V35.0095C88.5 34.5095 87.5 54.0095 69.5 55.0095L70 50.5095C85.5 48.5095 78 38.0095 72 39.0095Z" fill="#FF8B42" stroke="#FF8B42"/>
<path d="M48.1127 1C47.8744 1.35744 47.6483 1.70854 47.434 2.05361C43.4433 10.045 61.9897 21.8378 48.1127 40.5C52.026 20.9333 37.7537 17.638 47.434 2.05361C47.6131 1.69484 47.8377 1.34373 48.1127 1Z" fill="#FF8B42"/>
<path d="M48.1127 1C37.1127 17.5 52.1127 20.5 48.1127 40.5C62.6127 21 41.7127 9 48.1127 1Z" stroke="#FF8B42"/>
<path d="M34.1935 12.4538C34.1237 12.7154 34.0593 12.9714 34.0003 13.222C33.1526 18.8948 44.9341 24.0207 40.5237 37.8737C39.4751 24.7619 31.3349 24.5369 34.0003 13.222C34.0384 12.9673 34.1019 12.7115 34.1935 12.4538Z" fill="#FF8B42"/>
<path d="M34.1935 12.4538C30.971 24.5332 39.4519 24.4716 40.5237 37.8737C45.1321 23.3988 32.0622 18.4521 34.1935 12.4538Z" stroke="#FF8B42"/>
</svg>
